<svg xmlns="http://www.w3.org/2000/svg" viewBox="0 0 48 48"><defs><style>.cls-1{fill:#db5669;}.cls-2{fill:#f26674;}.cls-3{fill:#a87e6b;}.cls-4{fill:#be927c;}.cls-5{fill:#dad7e5;}.cls-6{fill:#edebf2;}</style></defs><title>Shopping Basket</title><g id="Shopping_Basket" data-name="Shopping Basket"><path class="cls-1" d="M47,18a3,3,0,0,1-3,3H4a3,3,0,0,1,0-6H44A3,3,0,0,1,47,18Z"/><path class="cls-2" d="M47,18a3,3,0,0,1-3,3H19V15H44A3,3,0,0,1,47,18Z"/><path class="cls-1" d="M44,21c-3.32,18.3-3,18.33-4.53,20A6,6,0,0,1,35,43H13A6,6,0,0,1,7.1,38.07L4,21Z"/><path class="cls-2" d="M44,21c-3.18,17.68-2.94,18.23-4.53,20H23a4,4,0,0,1-4-4V21Z"/><polygon class="cls-1" points="44 21 43.46 24 19 24 19 21 44 21"/><path class="cls-3" d="M21.12,6c0,1.19.06.82-8.12,9H7L17.5,4.5A2.12,2.12,0,0,1,21.12,6Z"/><path class="cls-4" d="M20.5,4.5a2.12,2.12,0,0,0-3,0l-2,2a2.12,2.12,0,0,1,3,3l2-2A2.13,2.13,0,0,0,20.5,4.5Z"/><path class="cls-4" d="M41,15H35L27.5,7.5A2.12,2.12,0,0,1,29,3.88C30.2,3.88,29.5,3.5,41,15Z"/><path class="cls-5" d="M12,36V28a2,2,0,0,1,4,0v8A2,2,0,0,1,12,36Z"/><path class="cls-6" d="M22,36V28a2,2,0,0,1,4,0v8A2,2,0,0,1,22,36Z"/><path class="cls-5" d="M22.05,27.55A2,2,0,0,1,24.5,29.5c0,8.85,0,8.11-.05,8.45A2,2,0,0,0,26,36V28A2,2,0,0,0,22.05,27.55Z"/><path class="cls-6" d="M32,36V28a2,2,0,0,1,4,0v8A2,2,0,0,1,32,36Z"/><path class="cls-5" d="M32.05,27.55A2,2,0,0,1,34.5,29.5c0,8.85,0,8.11,0,8.45A2,2,0,0,0,36,36V28A2,2,0,0,0,32.05,27.55Z"/></g></svg>